<?xml version="1.0" standalone="no"?>
<!DOCTYPE svg PUBLIC "-//W3C//DTD SVG 20010904//EN"
 "http://www.w3.org/TR/2001/REC-SVG-20010904/DTD/svg10.dtd">
<svg version="1.0" xmlns="http://www.w3.org/2000/svg"
 width="300.000000pt" height="300.000000pt" viewBox="0 0 300.000000 300.000000"
 preserveAspectRatio="xMidYMid meet">
<metadata>
Created by potrace 1.11, written by Peter Selinger 2001-2013
</metadata>
<g transform="translate(0.000000,300.000000) scale(0.100000,-0.100000)"
fill="#000000" stroke="none">
<path d="M742 2255 l-743 -740 123 -123 123 -122 620 620 621 621 622 -623
621 -623 121 120 c66 66 120 124 120 130 0 6 -101 112 -225 235 l-225 223 0
334 0 333 -170 0 -170 0 0 -167 0 -168 -347 345 -348 345 -743 -740z"/>
<path d="M972 1667 l-512 -512 0 -563 0 -562 1030 0 1030 0 0 563 0 562 -513
513 c-281 281 -514 512 -517 512 -3 0 -236 -231 -518 -513z m319 -183 c72 -36
123 -137 123 -244 1 -132 -63 -220 -161 -220 -73 0 -129 42 -173 130 -28 54
-37 157 -21 218 15 53 72 119 115 131 35 11 78 5 117 -15z m548 -1 c68 -51 96
-167 67 -276 -49 -178 -211 -254 -313 -145 -103 110 -49 364 91 430 50 23 116
19 155 -9z m-906 -362 c80 -31 147 -136 147 -234 0 -71 -17 -115 -61 -151 -30
-25 -39 -28 -91 -24 -72 5 -119 40 -163 119 -39 70 -43 174 -9 227 40 64 110
88 177 63z m1265 -35 c35 -34 37 -40 40 -111 4 -66 1 -82 -23 -130 -63 -130
-203 -179 -286 -99 -98 94 -38 306 105 370 18 8 51 13 79 11 40 -4 55 -11 85
-41z m-654 -130 c70 -21 106 -54 186 -172 40 -59 102 -136 137 -171 80 -81
109 -127 129 -204 24 -95 -1 -178 -71 -237 -72 -58 -136 -64 -281 -26 -129 35
-209 35 -341 1 -56 -15 -117 -27 -135 -27 -176 0 -276 185 -193 356 17 34 61
92 105 139 42 44 109 123 148 177 121 164 192 201 316 164z"/>
</g>
</svg>
